# xmcd
#
# Track frame offsets:
#	150
#	15373
#	31978
#	47593
#	64150
#	80190
#	94338
#	111131
#	126205
#	142451
#	156933
#	172671
#	187354
#	202797
#	214804
#	230011
#	246085
#	260961
#
# Disc length: 3661 seconds
#
# Revision: 1
# Processed by: cddbd v1.5.2PL0 Copyright (c) Steve Scherf et al.
# Submitted via: audiograbber 1.82.02
#
DISCID=0c0e4b12
DTITLE=Various Artist - Country Radio - October 2014
DYEAR=2014
DGENRE=Country
TTITLE0=Lee Brice - Drinking Class
TTITLE1=Blake Shelton - Neon Light
TTITLE2=Gunnar and The Grizzley Boys - Standard American (PO Clean Edit)
TTITLE3=Jason Aldean - Burnin' It Down
TTITLE4=Jake Owen - What We Ain't Got
TTITLE5=Maggie Rose - Girl In Your Truck Song
TTITLE6=Thomas Rhett - Make Me Wanna
TTITLE7=Brad Paisley and Colt Ford - River Bank (Rmx)
TTITLE8=Maddie and Tae - Girl In A Country Song
TTITLE9=Tyler Farr - A Guy Walks Into A Bar
TTITLE10=RaeLynn - God Made Girls
TTITLE11=Kelleigh Bannen - You Are What You Love
TTITLE12=Chris Young - Lonely Eyes
TTITLE13=Natalie Stovali and The Drive - Mason Jar
TTITLE14=Darius Rucker - Homegrown Honey
TTITLE15=PawnShop Kings - Love Like Jesus
TTITLE16=Sunny Sweeney - Bad Girl Phase
TTITLE17=Joe Nichols - Hard To Be Cool
EXTD=
EXTT0=
EXTT1=
EXTT2=
EXTT3=
EXTT4=
EXTT5=
EXTT6=
EXTT7=
EXTT8=
EXTT9=
EXTT10=
EXTT11=
EXTT12=
EXTT13=
EXTT14=
EXTT15=
EXTT16=
EXTT17=
PLAYORDER=
